<svg width="125" height="34" viewBox="0 0 125 34" fill="none" xmlns="http://www.w3.org/2000/svg">
<path d="M12.7793 9.27074H7.66759C3.44019 9.27074 0 12.7544 0 16.9843V17.0278V24.6954C0 28.9228 3.44019 32.2735 7.66759 32.2735H15.3352C16.746 32.2735 17.891 31.1285 17.891 29.7176C17.891 28.3068 16.746 27.1618 15.3352 27.1618H7.66759C6.25931 27.1618 5.11172 26.1062 5.11172 24.6954V24.2558C5.91171 24.5395 6.77048 24.6059 7.66759 24.6059H12.7793C17.0067 24.6059 20.4469 21.1657 20.4469 16.9383C20.4469 12.7109 17.0067 9.27074 12.7793 9.27074ZM12.7793 19.4942H7.66759C6.25931 19.4942 5.11172 18.3466 5.11172 16.9383C5.11172 15.53 6.25931 14.3825 7.66759 14.3825H12.7793C14.1876 14.3825 15.3352 15.53 15.3352 16.9383C15.3352 18.3466 14.1876 19.4942 12.7793 19.4942Z" fill="white"/>
<path d="M22.1924 32.966C21.5841 32.6133 21.372 31.8287 21.7247 31.2204L34.504 9.08662C34.8567 8.47832 35.6413 8.26619 36.2496 8.61889C36.8579 8.9716 37.0701 9.75625 36.7174 10.3645L23.938 32.4983C23.5879 33.1066 22.8032 33.3188 22.1924 32.966Z" fill="#33CC00"/>
<path d="M42.9999 17.891V25.5586C42.9999 26.9669 44.1475 28.025 45.5558 28.025H53.2234C54.6342 28.025 55.7792 29.1701 55.7792 30.5809C55.7792 31.9917 54.6342 33.1367 53.2234 33.1367H45.5558C41.3284 33.1367 37.8882 29.786 37.8882 25.5586V17.891C37.8882 13.6636 41.3284 10.134 45.5558 10.134H53.2234C54.6342 10.134 55.7792 11.279 55.7792 12.6899C55.7792 14.1007 54.6342 15.2457 53.2234 15.2457H45.5558C44.1475 15.2457 42.9999 16.4828 42.9999 17.891ZM112.008 25.4692H117.12C121.347 25.4692 124.787 22.029 124.787 17.8016C124.787 13.5742 121.347 10.134 117.12 10.134H112.008C107.781 10.134 104.341 13.6176 104.341 17.8476V17.891V25.5586C104.341 29.786 107.781 33.1367 112.008 33.1367H119.676C121.087 33.1367 122.232 31.9917 122.232 30.5809C122.232 29.1701 121.087 28.025 119.676 28.025H112.008C110.6 28.025 109.452 26.9695 109.452 25.5586V25.119C110.252 25.4027 111.111 25.4692 112.008 25.4692ZM112.008 15.2457H117.12C118.528 15.2457 119.676 16.3933 119.676 17.8016C119.676 19.2099 118.528 20.3574 117.12 20.3574H112.008C110.6 20.3574 109.452 19.2099 109.452 17.8016C109.452 16.3933 110.6 15.2457 112.008 15.2457ZM99.2289 0C97.818 0 96.673 1.14503 96.673 2.55586V10.6631C95.873 10.3794 95.0143 10.134 94.1172 10.134H89.0054C84.778 10.134 81.3378 13.6636 81.3378 17.891V25.5586C81.3378 29.786 84.778 33.1367 89.0054 33.1367H94.1172C98.3446 33.1367 101.785 29.786 101.785 25.5586V17.891V2.55586C101.785 1.14503 100.64 0 99.2289 0ZM96.673 25.4692C96.673 26.88 95.528 28.025 94.1172 28.025H89.0054C87.5946 28.025 86.4496 26.88 86.4496 25.4692V17.8016C86.4496 16.3907 87.5946 15.2457 89.0054 15.2457H94.1172C95.528 15.2457 96.673 16.3907 96.673 17.8016V25.4692ZM71.1144 10.134H66.0027C61.7676 10.134 58.3351 13.5665 58.3351 17.8016V25.4692C58.3351 29.7042 61.7676 33.1367 66.0027 33.1367H71.1144C75.3495 33.1367 78.782 29.7042 78.782 25.4692V17.8016C78.782 13.5665 75.3495 10.134 71.1144 10.134ZM73.6703 25.4692C73.6703 26.88 72.5252 28.025 71.1144 28.025H66.0027C64.5918 28.025 63.4468 26.88 63.4468 25.4692V17.8016C63.4468 16.3907 64.5918 15.2457 66.0027 15.2457H71.1144C72.5252 15.2457 73.6703 16.3907 73.6703 17.8016V25.4692Z" fill="white"/>
</svg>
